<svg xmlns="http://www.w3.org/2000/svg" class="ionicon" viewBox="0 0 512 512" fill="#fff">
    <path d="M417.2 64H96.8C78.8 64 64 78.8 64 96.8v318.4c0 18 14.8 32.8 32.8 32.8h320.4c18 0 32.8-14.8 32.8-32.8V96.8C450 78.8 435.2 64 417.2 64zM164 388h-60V212h60zm-30-200c-19.6 0-36-16.4-36-36s16.4-36 36-36 36 16.4 36 36-16.4 36-36 36zm260 200h-60V292c0-22.8-8.2-38.4-28.6-38.4-15.6 0-24.8 10.6-28.9 20.9-1.5 3.5-1.9 8.3-1.9 13.1V388h-60V212h60v24.5c7.9-12.1 22.1-29.4 53.8-29.4 39.3 0 68.6 25.7 68.6 81.1z"/>
</svg>
