<?xml version="1.0" standalone="no"?>
<!DOCTYPE svg PUBLIC "-//W3C//DTD SVG 20010904//EN"
 "http://www.w3.org/TR/2001/REC-SVG-20010904/DTD/svg10.dtd">
<svg version="1.0" xmlns="http://www.w3.org/2000/svg"
 width="690.000000pt" height="546.000000pt" viewBox="0 0 690.000000 546.000000"
 preserveAspectRatio="xMidYMid meet">

<g transform="translate(0.000000,546.000000) scale(0.100000,-0.100000)"
fill="#000000" stroke="none">
<path d="M3255 5332 c-94 -54 -372 -217 -620 -362 -636 -372 -1428 -836 -1508
-883 -114 -66 -102 87 -105 -1347 -2 -841 0 -1267 7 -1291 6 -19 21 -45 33
-56 13 -12 156 -99 318 -194 162 -95 385 -225 495 -289 110 -65 292 -171 405
-237 113 -66 327 -191 475 -278 625 -367 657 -385 695 -385 35 0 127 51 690
382 213 125 668 391 800 468 219 127 775 453 834 489 33 20 69 49 80 64 l21
28 0 1279 c0 1263 0 1279 -20 1305 -11 15 -142 98 -295 187 -151 89 -367 215
-480 281 -113 66 -295 173 -405 237 -110 64 -402 235 -650 380 -556 326 -545
320 -575 320 -14 0 -101 -44 -195 -98z m1075 -1152 c426 -244 792 -454 813
-467 l37 -23 0 -250 0 -250 -285 0 -285 0 0 83 0 83 -567 324 c-311 178 -572
323 -578 323 -6 0 -69 -35 -141 -78 -71 -44 -304 -186 -519 -317 -214 -131
-394 -246 -400 -256 -6 -12 -9 -239 -7 -639 l2 -621 353 -215 c193 -118 438
-267 544 -331 l192 -116 108 68 c59 38 252 158 428 268 l320 199 -427 3 -428
2 0 310 0 310 833 0 834 0 6 -127 c4 -71 7 -257 7 -415 l0 -287 -22 -12 c-13
-7 -379 -234 -814 -505 -436 -270 -801 -497 -812 -503 -22 -12 1 -25 -1435
848 l-267 163 2 966 3 965 190 116 c105 64 318 195 475 290 157 96 382 233
500 306 118 72 271 166 340 208 l125 76 50 -29 c27 -15 399 -227 825 -470z"/>
</g>
</svg>
